<svg xmlns="http://www.w3.org/2000/svg" width="25.012" height="20.01" viewBox="0 0 25.012 20.01">
  <path id="crown-yellow-icon" d="M20.635,17.509H4.377a.627.627,0,0,0-.625.625v1.251a.627.627,0,0,0,.625.625H20.635a.627.627,0,0,0,.625-.625V18.134A.627.627,0,0,0,20.635,17.509ZM23.137,5a1.876,1.876,0,0,0-1.876,1.876,1.838,1.838,0,0,0,.172.774l-2.83,1.7A1.249,1.249,0,0,1,16.876,8.9L13.69,3.322a1.876,1.876,0,1,0-2.368,0L8.137,8.9a1.25,1.25,0,0,1-1.727.453l-2.826-1.7a1.875,1.875,0,1,0-1.708,1.1,1.916,1.916,0,0,0,.3-.031L5,16.258H20.01l2.826-7.535a1.916,1.916,0,0,0,.3.031,1.876,1.876,0,0,0,0-3.752Z" fill="#ff0000a4"/>
</svg>
