<svg version="1.2" xmlns="http://www.w3.org/2000/svg" viewBox="0 0 98 20" width="98" height="20"><style>.a{fill:#ec1c24}.b{fill:#fff}</style><path fill-rule="evenodd" class="a" d="m98 0v20h-98v-20z"/><path class="b" d="m35.1 10c0.9 0.5 1.3 1.4 1.3 2.4 0 2.3-1.9 3.5-4 3.5-1.2 0-2.4-0.3-3.2-1.2v0.1l0.1 0.5q-0.1 0.6-0.6 0.6c-0.5 0-0.7-0.2-0.7-1.1 0-0.8 0.1-1.3 0.1-1.8 0-0.6-0.1-1.1-0.1-1.6 0-0.4 0.2-0.7 0.7-0.7 0.4 0 0.6 0.3 0.6 0.7 0 0.2 0 0.5 0 0.7 0 1.8 1.3 2.7 2.9 2.7 0.6 0 1.4-0.1 1.9-0.5 0.6-0.3 0.9-1 0.9-1.7 0-1.6-1.1-1.8-2.4-2-0.9-0.2-2-0.4-2.8-0.8-1-0.4-1.5-1.4-1.5-2.4 0-1 0.4-1.8 1.1-2.5 0.8-0.6 1.8-0.8 2.8-0.8 1 0 1.9 0.3 2.6 1.1v-0.3c0-0.3 0.1-0.6 0.5-0.6 0.5 0 0.6 0.3 0.6 0.7 0 0.6-0.1 1.1-0.1 1.6 0 0.6 0.1 1.1 0.1 1.5 0 0.4-0.1 0.8-0.6 0.8-0.4 0-0.7-0.3-0.7-0.7 0-0.2 0.1-0.5 0.1-0.8 0-1.5-1.2-2.1-2.6-2.1-1.2 0-2.4 0.6-2.4 2 0 1.2 0.8 1.6 2.9 1.9 0.8 0.2 1.8 0.3 2.5 0.8z"/><path class="b" d="m37.8 10c0-3.1 1.4-5.9 4.9-5.9 1.4 0 2.7 0.5 3.6 1.7 0.8 1 1.2 2.7 1.2 4 0 1.2-0.3 2.9-1 4-0.9 1.4-2.3 2.1-4 2.1-3.4 0-4.7-2.9-4.7-5.9zm7.6 3c0.4-0.9 0.6-2.3 0.6-3.2 0-0.9-0.2-2.2-0.7-3-0.6-1-1.5-1.5-2.6-1.5-2.8 0-3.4 2.6-3.4 4.8 0 0.9 0.1 2.2 0.7 3.1 0.5 1 1.4 1.6 2.6 1.6 1.2 0 2.2-0.7 2.8-1.8z"/><path class="b" d="m56.4 13.7c0.4-0.6 0.5-1.2 0.5-1.8 0-0.4 0.1-0.8 0.6-0.8 0.5 0 0.7 0.3 0.7 0.8 0 2.5-1.9 4-4.4 4-3.4 0-5-2.7-5-5.7 0-1.4 0.3-3 1.2-4.1 0.9-1.3 2.3-2 3.8-2 1.3 0 2.3 0.4 3.1 1.4 0-0.3-0.1-0.5-0.1-0.8 0-0.3 0.2-0.5 0.5-0.5 0.4 0 0.6 0.3 0.6 0.7 0 0.6-0.1 1.3-0.1 1.9 0 0.7 0.1 1.3 0.1 1.8 0 0.4-0.2 0.6-0.6 0.6-0.6 0-0.6-0.2-0.6-1 0-0.6-0.1-1.2-0.4-1.8-0.5-0.8-1.5-1.1-2.4-1.1-2.7 0-3.6 2.4-3.6 4.7 0 2.3 0.9 4.8 3.6 4.8 0.9 0 1.9-0.3 2.5-1.1z"/><path class="b" d="m61.4 8c0-0.5 0.1-1.5-0.1-2-0.1-0.4-0.3-0.6-0.8-0.6-0.2 0-0.5 0.1-0.7 0.1-0.3 0-0.6-0.3-0.6-0.6 0-0.4 0.4-0.6 0.7-0.6 0.8 0 1.4 0.2 2.2 0.2 0.9 0 1.5-0.2 2.2-0.2 0.4 0 0.7 0.2 0.7 0.6 0 0.3-0.2 0.6-0.5 0.6-0.3 0-0.5-0.1-0.8-0.1-0.4 0-0.7 0.2-0.8 0.6-0.1 0.5-0.1 1.5-0.1 2v4c0 0.5 0 1.6 0.1 2q0.2 0.7 0.8 0.7c0.3 0 0.5-0.1 0.8-0.1 0.3 0 0.5 0.2 0.5 0.5 0 0.4-0.3 0.6-0.7 0.6-0.8 0-1.3-0.2-2.2-0.2-0.8 0-1.4 0.2-2.2 0.2-0.3 0-0.7-0.2-0.7-0.6 0-0.3 0.3-0.5 0.6-0.5 0.2 0 0.5 0.1 0.7 0.1 0.5 0 0.7-0.2 0.8-0.7 0.2-0.4 0.1-1.5 0.1-2z"/><path class="b" d="m85.3 10c0.9 0.5 1.3 1.4 1.3 2.4 0 2.3-2 3.5-4.1 3.5-1.2 0-2.3-0.3-3.1-1.2v0.1 0.5q0 0.6-0.6 0.6c-0.5 0-0.7-0.2-0.7-1.1 0-0.8 0.2-1.3 0.2-1.8 0-0.6-0.2-1.1-0.2-1.6 0-0.4 0.3-0.7 0.7-0.7 0.4 0 0.7 0.3 0.7 0.7 0 0.2-0.1 0.5-0.1 0.7 0 1.8 1.4 2.7 3 2.7 0.6 0 1.3-0.1 1.9-0.5 0.5-0.3 0.9-1 0.9-1.7 0-1.6-1.2-1.8-2.5-2-0.8-0.2-2-0.4-2.8-0.8-0.9-0.5-1.5-1.4-1.5-2.4 0-1 0.4-1.8 1.2-2.5 0.8-0.6 1.8-0.8 2.7-0.8 1 0 2 0.3 2.7 1.1v-0.3c0-0.3 0.1-0.6 0.5-0.6 0.4 0 0.6 0.3 0.6 0.7 0 0.6-0.2 1.1-0.2 1.6 0 0.6 0.2 1.1 0.2 1.5 0 0.4-0.2 0.8-0.7 0.8-0.4 0-0.6-0.3-0.6-0.7 0-0.2 0-0.5 0-0.8 0-1.5-1.2-2.1-2.6-2.1-1.2 0-2.4 0.6-2.4 2 0 1.2 0.9 1.6 2.9 1.9 0.9 0.2 1.8 0.3 2.6 0.8z"/><path class="b" d="m72.2 4c-3.8 0-6.9 3.1-6.9 6.8 0 3 2.3 5.2 5.3 5.2 1.2 0 2.4-0.4 3.4-1 0.4-0.2 1.2-0.7 1.2-1.2 0-0.2-0.1-0.3-0.4-0.3-0.1 0-0.4 0.2-0.6 0.3-1 0.7-2.1 1.2-3.4 1.2-2.5 0-4.2-1.9-4.2-4.3 0-2.9 2.4-5.8 5.5-5.8 2.1 0 3.6 1.6 3.6 3.7 0 0.9-0.3 1.9-0.8 2.7-0.2 0.4-0.9 1-1.4 1-0.2 0-0.3-0.2-0.3-0.5 0-0.1 0-0.5 0-0.9l0.1-1.6c0-0.8-0.1-1.4-0.7-1.9-0.5-0.3-1.1-0.5-1.7-0.5-0.5 0-1.1 0.2-1.6 0.5-0.4 0.3-0.7 0.7-0.7 1.2 0 0.5 0.3 0.8 0.7 0.8 0.4 0 0.7-0.2 0.7-0.5 0-0.5-0.3-0.5-0.3-0.5 0-0.2 0.2-0.3 0.3-0.4 0.2-0.1 0.6-0.2 0.9-0.2 0.7 0 1.4 0.2 1.4 1.1 0 0.9-1 0.8-1.7 0.9-0.6 0.1-1.1 0.1-1.6 0.5-0.6 0.3-0.9 0.8-0.9 1.5 0 0.6 0.4 1.1 0.9 1.5 0.4 0.2 0.9 0.3 1.4 0.3 0.7 0 1.4-0.2 1.8-0.7 0.2 0.3 0.6 0.4 1 0.4 1.1 0 2.1-0.9 2.7-1.7 0.6-0.9 1-2.1 1-3.2 0-2.7-2-4.4-4.7-4.4zm-1.8 8.8c-0.6 0-1.2-0.3-1.2-1 0-0.9 0.7-1 1.4-1.1 0.6-0.1 1.2-0.1 1.7-0.5q0 0.4-0.1 0.8c0 0.4 0 0.8-0.3 1.1-0.3 0.5-0.9 0.7-1.5 0.7z"/><path fill-rule="evenodd" d="m21.4 7.6l-4.7 3.5 1.6 5.5-4.7-3.3-4.8 3.2 1.8-5.5-4.6-3.5 5.8-0.1 2-5.4 1.8 5.4z"/></svg>