<svg xmlns="http://www.w3.org/2000/svg" width="25" height="25" viewBox="0 0 25 25">
  <g id="crown-fill-yellow" transform="translate(-119.229 -2169.543)">
    <circle id="Ellipse_562" data-name="Ellipse 562" cx="12.5" cy="12.5" r="12.5" transform="translate(119.229 2169.543)" fill="#ff0000a4"/>
    <path id="Icon_awesome-crown" data-name="Icon awesome-crown" d="M10.931,9.275H2.319a.332.332,0,0,0-.331.331v.662a.332.332,0,0,0,.331.331h8.612a.332.332,0,0,0,.331-.331V9.606A.332.332,0,0,0,10.931,9.275ZM12.256,2.65a.994.994,0,0,0-.994.994.974.974,0,0,0,.091.41l-1.5.9a.662.662,0,0,1-.915-.24L7.252,1.76A.994.994,0,1,0,6,1.76L4.31,4.712a.662.662,0,0,1-.915.24l-1.5-.9a.993.993,0,1,0-.9.584,1.015,1.015,0,0,0,.159-.017l1.5,3.991H10.6l1.5-3.991a1.015,1.015,0,0,0,.159.017.994.994,0,1,0,0-1.987Z" transform="translate(125.229 2176.743)" fill="#212121"/>
  </g>
</svg>
