<svg xmlns="http://www.w3.org/2000/svg" viewBox="0 0 160 72">
  <rect width="160" height="72" rx="6" fill="#f0f0f0"/>
  <svg x="16" y="12" width="128" height="48" id="Layer_2" xmlns="http://www.w3.org/2000/svg" viewBox="0 0 251.85 70">
<defs><style>.cls-1{letter-spacing:-.01em;}.cls-2{font-family:TitilliumWeb-Regular, 'Titillium Web';font-size:24.4px;}.cls-3{fill:#1048b0;stroke-width:0px;}</style>
</defs>
<g id="Layer_1-2">
    <path class="cls-3" d="M0,0h16.36v54.48h27.18v13.78H0V0Z"/>
    <path class="cls-3" d="M76.43,48.18v-4.83h-1.85c-10.89,0-14.38,1.4-14.38,7.43,0,4.63,1.75,6.59,6.8,6.59,5.73,0,9.42-1.95,9.42-9.19M46.2,52.36c0-14.76,8.55-18.07,28.28-18.07h1.94c-.29-4.36-1.85-7.94-7.29-7.94-4.81-.11-9.59.85-13.99,2.79l-5.93-11.33c4.86-2.41,11.66-4.17,21.58-4.17,15.16,0,19.82,6.65,19.82,19.64v18.71c0,3.25,1.37,4.09,4.88,4.09v12.15c-1.56.19-4.1.19-5.46.19-7,0-9.62-.65-11.27-4.36-2.92,3.34-7.29,4.83-15.16,4.83-14.39,0-17.39-7.05-17.39-16.52"/>
    <path class="cls-3" d="M190.92,42.24c0-9.18-.97-14.47-9.43-14.47s-9.43,5.29-9.43,14.47.97,14.57,9.43,14.57,9.43-5.48,9.43-14.57M157.2,41.78c0-16.43,4.76-27.09,24.3-27.09s24.19,10.85,24.19,27.09-4.56,27.28-24.19,27.28-24.3-10.67-24.3-27.28"/>
    <path class="cls-3" d="M208.7,58.95l21.97-31.08h-20.61v-12.25h39.06v9.47l-22.16,31.74h23.03v11.41h-41.3v-9.28Z"/>
    <path class="cls-3" d="M139.01,48.96c.05.05.08.12.08.2,0,.18-.14.33-.33.34h-.12c-.15,0-.31,0-.46,0-2.77,0-5.31-1.51-6.64-3.94l-.07-.09C129.47,42.38,117.8,0,117.8,0h-16.23l21.42,68.71h18.12L162.62,0h-16.23l-9.88,33.89-.24.85c-1.63,5.39-.7,10.77,2.74,14.23"/>
</g>
</svg>
</svg>
