<svg xmlns="http://www.w3.org/2000/svg" viewBox="0 0 160 72">
  <rect width="160" height="72" rx="6" fill="#f0f0f0"/>
  <svg x="16" y="12" width="128" height="48" xmlns="http://www.w3.org/2000/svg" viewBox="0 0 500 351.857">
  <path id="logo_m1_blanco" d="M373.186,58.909V85.461c14.8,4.788,24.521,10.3,32.356,18.427,18.137,18.862,22.345,32.792,22.345,81.979v165.99H500V0H439.35S411.782,52.089,373.186,58.909ZM0,95.763H72.548v36.564a172.853,172.853,0,0,1,13.639-15.67,91.831,91.831,0,0,1,16.541-13.2,76.136,76.136,0,0,1,20.313-9.141,89.834,89.834,0,0,1,25.1-3.337c16.831,0,31.486,3.482,43.674,10.592a71.867,71.867,0,0,1,28.439,30.325c11.172-13.494,23.505-23.651,37.29-30.615,13.639-6.819,29.309-10.3,46.866-10.3q40.482,0,63.552,23.941,22.853,23.941,22.925,70.226V351.857H318.34V209.373c0-17.121-3.627-30.035-11.027-38.886-7.4-8.706-17.847-13.059-31.486-13.059s-24.376,4.353-32.211,13.059-11.753,21.619-11.753,38.886V351.857H159.315V209.373c0-17.121-3.627-30.035-11.027-38.886-7.4-8.706-17.847-13.059-31.486-13.059s-24.376,4.353-32.211,13.059-11.753,21.619-11.753,38.886V351.857H0Z" fill="#c82828"/>
</svg>
</svg>
