<svg version="1.2" xmlns="http://www.w3.org/2000/svg" viewBox="0 0 160 72" width="160" height="72"><style>.a{fill:#f0f0f0}.b{fill:#a6ce39}.c{fill:#fff}.d{fill:#020005}</style><path fill-rule="evenodd" class="a" d="m6 0h148c3.3 0 6 2.7 6 6v60c0 3.3-2.7 6-6 6h-148c-3.3 0-6-2.7-6-6v-60c0-3.3 2.7-6 6-6z"/><path fill-rule="evenodd" class="b" d="m27 8h106v56h-106z"/><path class="c" d="m95.9 10.3h-12l-3.8 25.9c-0.2-18.9-13.6-26.9-26.5-26.9-13.1 0-26.6 8.1-26.6 27.4 0 19.3 13.5 27.3 26.6 27.3 10.4 0 21.1-5.1 25-16.9l-2.3 15.9h12zm-30.4 26.3c0 9.7-4.3 16-11.9 16-7.7 0-12-6.3-12-16 0-9.7 4.3-15.6 12-15.6 7.6 0 11.9 5.9 11.9 15.6z"/><path class="c" d="m116.4 24.1c-6.8 0-22.9 3.5-22.9 23.3 0 11.6 8.4 16.4 19.2 16.4 8.4 0 14.2-2 18.2-5l-5.3-8.1c-3.2 2.2-6.9 3.4-10.8 3.5-3.9 0-7.1-1.1-7.1-6.2h24.4l0.4-2.1c2.6-15.4-4.3-21.8-16.1-21.8zm4.3 15.9h-12c1.4-3.9 3.8-6 6.9-6 4.3 0 5.3 2.3 5.1 6z"/><path class="d" d="m119 20.9l13.4-12.9h-13.9l-9.1 12.9z"/></svg>